<svg width="260" height="43" xmlns="http://www.w3.org/2000/svg" color-interpolation-filters="sRGB" preserveAspectRatio="xMidYMid meet" version="1.0">

 <g>
  <title>Layer 1</title>
  <g id="svg_1" class="basesvg" fill="#ff0844">
   <g id="svg_2" class="tp-name" data-gra="path-name">
    <g id="svg_3" transform="translate(66.9327 103.806) scale(1 1)">
     <g id="svg_4">
      <path id="svg_5" d="m-27.32667,-79.20335l0,0l-10.25,0q-0.94,0 -1.52,-0.58q-0.57,-0.58 -0.57,-1.51l0,0l0,-19.22q0,-2.38 2.37,-2.38q2.38,0 2.38,2.38l0,0l0,17.34l7.59,0q2,0 2,2l0,0q0,1.97 -2,1.97zm19,0l0,0l-10.81,0q-0.94,0 -1.52,-0.58q-0.58,-0.58 -0.58,-1.51l0,0l0,-19.5q0,-0.94 0.58,-1.52q0.58,-0.58 1.52,-0.58l0,0l10.5,0q1.94,0 1.94,1.97q0,1.97 -1.94,1.97l0,0l-7.85,0l0,5.47l6.32,0q2,0 2,2l0,0q0,1.97 -2,1.97l0,0l-6.32,0l0,6.34l8.16,0q1.97,0 1.97,2l0,0q0,1.97 -1.97,1.97zm11.91,-12.34l-0.69,2.59l5.62,0l-0.71,-2.59q-0.41,-1.38 -1.1,-4.05q-0.69,-2.67 -0.97,-3.7l0,0l-0.12,0q-0.81,3.62 -2.03,7.75l0,0zm7.12,10.65l-1.15,-4.4l-7.69,0l-1.16,4.18q-0.5,1.91 -2.47,1.91l0,0q-2.81,0 -1.97,-2.75l0,0l6.19,-19.34q0.22,-0.72 0.83,-1.16q0.61,-0.44 1.39,-0.44l0,0l2.16,0q0.78,0 1.39,0.44q0.61,0.44 0.83,1.19l0,0l6.34,19.72q0.34,1.06 -0.11,1.7q-0.45,0.64 -1.58,0.64l0,0l-0.75,0q-0.81,0 -1.42,-0.45q-0.61,-0.46 -0.83,-1.24l0,0z"/>
     </g>
     <!---->
     <!---->
     <!---->
     <!---->
     <!---->
     <!---->
     <g id="svg_6" fill="#0a0619" data-gra="path-name-1">
      <g id="svg_7" transform="translate(58.2063 0) scale(1 1)">
       <path id="svg_8" d="m-31.85667,-99.14335l-3.06,0l0,7.22l3.06,0q4.72,0 4.72,-3.78l0,0q0,-1.84 -1.17,-2.64q-1.18,-0.8 -3.55,-0.8l0,0zm-5.72,-3.75l0,0l6.16,0q8.9,0 8.9,7.19l0,0q0,5.06 -4.5,6.81l0,0l4.19,7.31q0.59,1.07 0.22,1.72q-0.38,0.66 -1.59,0.66l0,0l-1.1,0q-1.53,0 -2.19,-1.28l0,0l-4.15,-7.69l-3.28,0l0,6.59q0,2.38 -2.38,2.38q-2.37,0 -2.37,-2.38l0,0l0,-19.21q0,-0.94 0.57,-1.52q0.58,-0.58 1.52,-0.58zm21.81,0l0,0l1.63,0q1.12,0 1.65,1l0,0l6.35,11.63l2.37,5.12l0.16,0q-0.63,-6.19 -0.63,-8.31l0,0l0,-7.19q0,-2.25 2.25,-2.25q2.25,0 2.25,2.25l0,0l0,19.03q0,1.16 -0.79,1.78q-0.8,0.63 -2.05,0.63l0,0q-1.97,0 -2.75,-1.44l0,0l-6.06,-11.25l-2.41,-5.06l-0.15,0q0.03,0.44 0.23,2.42q0.2,1.99 0.28,3.3q0.08,1.31 0.08,2.53l0,0l0,7.25q0,2.25 -2.25,2.25q-2.25,0 -2.25,-2.25l0,0l0,-19.34q0,-0.94 0.58,-1.52q0.58,-0.58 1.51,-0.58zm34.19,23.69l0,0l-12.44,0q-0.65,0 -1.04,-0.39q-0.39,-0.39 -0.39,-1.05l0,0l0,-0.09q0,-1.22 1.28,-2.38l0,0q4.5,-4.12 6.73,-7.17q2.24,-3.05 2.24,-5.48l0,0q0,-1.82 -0.94,-2.83q-0.94,-1.02 -2.63,-1.02l0,0q-1.37,0 -2.9,1.1l0,0q-1.44,1.34 -2.75,0.03l0,0q-1.25,-1.25 0.12,-2.56l0,0q2.66,-2.29 6.16,-2.29l0,0q3.34,0 5.39,1.99q2.05,1.98 2.05,5.3l0,0q0,5.4 -7.88,13.12l0,0q2.38,-0.25 3.84,-0.25l0,0l3.16,0q2,0 2,2l0,0q0,1.97 -2,1.97zm5.31,-11.75l0,0q0,-5.38 3.05,-8.88q3.05,-3.5 7.98,-3.5l0,0q3.13,0 5.69,1.91l0,0q1.25,1.13 0.06,2.53l0,0q-1.31,1.6 -2.96,0.31l0,0q-1.29,-0.68 -2.69,-0.68l0,0q-2.75,0 -4.52,2.2q-1.76,2.2 -1.76,5.95l0,0q0,3.85 1.67,6.05q1.67,2.2 4.51,2.2l0,0q1.69,0 3.29,-0.97l0,0q1.59,-1.37 2.96,0.25l0,0q1.13,1.35 -0.15,2.63l0,0q-2.66,2.19 -6.28,2.19l0,0q-4.69,0 -7.77,-3.24q-3.08,-3.23 -3.08,-8.95zm42.19,-0.19l0,0q0,5.47 -2.81,8.92q-2.81,3.46 -7.78,3.46l0,0q-4.75,0 -7.68,-3.33q-2.92,-3.33 -2.92,-9.05l0,0q0,-5.69 2.91,-8.94q2.91,-3.25 7.69,-3.25q4.78,0 7.68,3.25q2.91,3.25 2.91,8.94zm-16.34,0l0,0q0,3.56 1.45,5.92q1.45,2.36 4.3,2.36l0,0q2.65,0 4.22,-2.25q1.56,-2.25 1.56,-6.03q0,-3.78 -1.56,-5.95q-1.57,-2.17 -4.22,-2.17q-2.66,0 -4.21,2.15q-1.54,2.16 -1.54,5.97zm27.72,11.94l0,0l-5.19,0q-0.72,0 -1.14,-0.42q-0.42,-0.42 -0.42,-1.14l0,0l0,-20.03q0,-0.94 0.57,-1.52q0.58,-0.58 1.52,-0.58l0,0l4.41,0q5.56,0 8.64,2.94q3.07,2.94 3.07,8.81l0,0q0,5.85 -3.06,8.89q-3.06,3.05 -8.4,3.05zm-0.54,-19.91l-1.46,0l0,16.1l1.46,0q7.16,0 7.16,-8.13l0,0q0,-7.97 -7.16,-7.97l0,0zm29.54,19.91l0,0l-10.82,0q-0.93,0 -1.51,-0.58q-0.58,-0.58 -0.58,-1.51l0,0l0,-19.5q0,-0.94 0.58,-1.52q0.58,-0.58 1.51,-0.58l0,0l10.5,0q1.94,0 1.94,1.97q0,1.97 -1.94,1.97l0,0l-7.84,0l0,5.47l6.31,0q2,0 2,2l0,0q0,1.97 -2,1.97l0,0l-6.31,0l0,6.34l8.16,0q1.96,0 1.96,2l0,0q0,1.97 -1.96,1.97z"/>
      </g>
     </g>
    </g>
   </g>
   <g id="svg_9" fill="#0a0619" class="tp-slogan" data-gra="path-slogan">
    <!---->
    <!---->
    <g id="svg_10" transform="translate(66.9327 103.806) scale(1 1)">
     <g id="svg_11" transform="translate(-26.8198 30.57) scale(1.32 1.32)">
      <path id="svg_12" d="m-26.81113,-77.11034l-2.07,0l0,2.67l2.07,0q1.82,0.05 1.78,-1.41l0,0q0,-1.26 -1.78,-1.26l0,0zm0.46,7.64l-3.7,0l0,-8.58l3.8,0q2.29,0.1 2.39,2.16l0,0q0,1.26 -1.13,1.78l0,0q1.6,0.56 1.6,2.11l0,0q-0.14,2.44 -2.96,2.53l0,0zm-0.28,-3.98l-2.25,0l0,3l2.49,0q1.78,-0.05 1.83,-1.55l0,0q0,-1.45 -2.07,-1.45l0,0zm12.22,0.79l0,-5.39l1.17,0l0,5.53q-0.14,3.1 -3.51,3.19l0,0q-3.14,-0.09 -3.28,-3l0,0l0,-5.72l1.17,0l0,5.39q0.05,2.35 2.15,2.39l0,0q2.3,-0.04 2.3,-2.39l0,0zm5.14,-5.39l1.17,0l0,8.58l-1.17,0l0,-8.58zm5.14,0l1.17,0l0,7.55l4.36,0l0,1.03l-5.53,0l0,-8.58zm12.17,8.58l-3.46,0l0,-8.58l3.51,0q3.47,0.19 3.61,4.17l0,0q-0.19,4.32 -3.66,4.41l0,0zm-0.14,-7.64l-2.15,0l0,6.66l2.25,0q2.44,-0.15 2.53,-3.33l0,0q-0.05,-3.24 -2.63,-3.33l0,0zm19.52,-0.94l-3.23,5.11l0,3.47l-1.18,0l0,-3.47l-3.23,-5.11l1.36,0l2.44,4.13l2.48,-4.13l1.36,0zm9.83,4.31l0,0q-0.19,-3.37 -3,-3.56l0,0q-2.86,0.14 -3,3.56l0,0q0.14,3.33 3,3.47l0,0q2.81,-0.18 3,-3.47zm1.17,0l0,0q-0.28,4.27 -4.17,4.41l0,0q-3.94,-0.14 -4.22,-4.41l0,0q0.23,-4.45 4.22,-4.54l0,0q3.89,0.14 4.17,4.54zm9.03,1.08l0,-5.39l1.17,0l0,5.53q-0.14,3.1 -3.51,3.19l0,0q-3.14,-0.09 -3.28,-3l0,0l0,-5.72l1.17,0l0,5.39q0.04,2.35 2.15,2.39l0,0q2.3,-0.04 2.3,-2.39l0,0zm9.08,-0.51l-2.81,0l0,3.7l-1.18,0l0,-8.58l3.99,0q2.86,0 2.86,2.3l0,0q0,1.4 -1.22,2.06l0,0q1.03,0.28 1.03,1.64l0,0l0.09,1.55q-0.04,0.65 0.43,0.84l0,0l0,0.19l-1.46,0q-0.14,-0.61 -0.18,-2.16l0,0q0.04,-1.54 -1.55,-1.54l0,0zm0.09,-3.94l-2.9,0l0,2.95l2.72,0q1.73,0 1.73,-1.5l0,0q0,-1.45 -1.55,-1.45l0,0zm18.53,3.37l0,0q-0.18,-3.37 -3,-3.56l0,0q-2.86,0.14 -3,3.56l0,0q0.14,3.33 3,3.47l0,0q2.82,-0.18 3,-3.47zm1.18,0l0,0q-0.29,4.27 -4.18,4.41l0,0q-3.93,-0.14 -4.21,-4.41l0,0q0.23,-4.45 4.21,-4.54l0,0q3.89,0.14 4.18,4.54zm8.14,-2.86l-0.05,0l-1.97,7.13l-1.22,0l-2.25,-8.58l1.22,0l1.64,6.99l0.05,0l1.92,-6.99l1.27,0l1.92,6.99l0.04,0l1.6,-6.99l1.26,0l-2.25,8.58l-1.21,0l-1.97,-7.13zm9.92,-1.45l4.31,6.94l0,-6.94l1.13,0l0,8.58l-1.32,0l-4.36,-6.94l-0.04,0l0,6.94l-1.13,0l0,-8.58l1.41,0zm20.83,2.49l0,0l-1.08,0q-0.1,-1.64 -2.16,-1.74l0,0q-1.92,0.05 -1.92,1.5l0,0q0,0.94 1.03,1.08l0,0l2.44,0.56q1.92,0.47 1.92,2.35l0,0q-0.05,2.39 -3.37,2.48l0,0q-1.83,0 -2.58,-0.75l0,0q-0.94,-0.7 -0.89,-2.16l0,0l1.12,0q0.05,1.97 2.35,2.02l0,0q2.25,-0.05 2.29,-1.45l0,0q0.19,-1.18 -1.87,-1.55l0,0l-1.78,-0.38q-1.83,-0.51 -1.83,-2.06l0,0q0.14,-2.53 3,-2.62l0,0q3.23,0 3.33,2.72zm5,5.06l5.15,0l0,1.03l-6.33,0l0,-8.58l6.24,0l0,0.99l-5.06,0l0,2.67l4.68,0l0,1.03l-4.68,0l0,2.86zm12.78,-2.67l-2.81,0l0,3.7l-1.18,0l0,-8.58l3.99,0q2.86,0 2.86,2.3l0,0q0,1.4 -1.22,2.06l0,0q1.03,0.28 1.03,1.64l0,0l0.09,1.55q-0.04,0.65 0.43,0.84l0,0l0,0.19l-1.46,0q-0.14,-0.61 -0.19,-2.16l0,0q0.05,-1.54 -1.54,-1.54l0,0zm0.09,-3.94l-2.9,0l0,2.95l2.71,0q1.74,0 1.74,-1.5l0,0q0,-1.45 -1.55,-1.45l0,0zm7.06,-0.94l2.44,7.31l2.49,-7.31l1.31,0l-3.14,8.58l-1.27,0l-3.14,-8.58l1.31,0zm10.63,7.55l5.16,0l0,1.03l-6.33,0l0,-8.58l6.23,0l0,0.99l-5.06,0l0,2.67l4.69,0l0,1.03l-4.69,0l0,2.86zm12.78,-2.67l-2.81,0l0,3.7l-1.17,0l0,-8.58l3.98,0q2.86,0 2.86,2.3l0,0q0,1.4 -1.22,2.06l0,0q1.03,0.28 1.03,1.64l0,0l0.1,1.55q-0.05,0.65 0.42,0.84l0,0l0,0.19l-1.46,0q-0.14,-0.61 -0.18,-2.16l0,0q0.04,-1.54 -1.55,-1.54l0,0zm0.09,-3.94l-2.9,0l0,2.95l2.72,0q1.73,0 1.73,-1.5l0,0q0,-1.45 -1.55,-1.45l0,0z"/>
     </g>
    </g>
   </g>
  </g>
 </g>
</svg>